<svg xmlns="http://www.w3.org/2000/svg" viewBox="0 0 2779.25 2800"><defs><style>.cls-1{isolation:isolate;}.cls-2{fill:#e6e6e6;}.cls-3{fill:#ccc;}.cls-10,.cls-11,.cls-13,.cls-14,.cls-15,.cls-4,.cls-7,.cls-9{fill:#fff;}.cls-4{mix-blend-mode:soft-light;}.cls-5{fill:gray;}.cls-6{fill:#e99f03;}.cls-12,.cls-8{fill:#4d4d4d;}.cls-9{opacity:0.57;}.cls-10{opacity:0.74;}.cls-11{opacity:0.2;}.cls-12{opacity:0.63;}.cls-13{opacity:0.66;}.cls-14{opacity:0.59;}.cls-15{opacity:0.78;}.cls-16{fill:#b3b3b3;}</style></defs><title>services1</title><g class="cls-1"><g id="Illustration"><path class="cls-2" d="M2922.88,2851.42c-57,60-110.92,98.7-153.53,129.27-500.86,359.37-1093.51,254.62-1219.47,229-186-37.78-545.52-110.8-805.45-416.47-393.25-462.46-332-1191.05-27-1672C773.24,1033.28,1068,545,1667,466.7c362.52-47.39,785.12,48.19,1091.14,304.58C3400.54,1309.47,3354.81,2396.71,2922.88,2851.42Z" transform="translate(-465.37 -455)"/><path class="cls-3" d="M2935.6,621.21c6.1-13.28-8.65-26.52-21.31-19.22-128.53,74.13-451.11,310.78-509.66,843.06C2331.16,2112.88,2140.25,2318,1938,2422.94c0,0,247.16-13.63,449.1-219.83C2882.87,1696.83,2827.07,857.26,2935.6,621.21Z" transform="translate(-465.37 -455)"/><path class="cls-4" d="M2807.81,805.16c-30.15,69.18-58.93,138.92-85.12,209.61q-39.83,105.81-73.1,213.82c-21.86,72.05-42.37,144.5-59.78,217.72-17.73,73.13-32.3,146.94-46.67,221.1-14.77,74-29.24,148.7-51.39,222.11s-53.18,145.11-96.52,209.12c-10.82,16-22,31.76-33.95,46.76-11.71,15.22-24.09,29.93-36.72,44.42a821.71,821.71,0,0,1-82.09,81.11c-58.69,50-124.95,91-194.73,122.44a14.59,14.59,0,0,1-12.39-26.42l.05,0c16.76-8.13,33.4-16.45,49.61-25.48,8.18-4.39,16.15-9.13,24.2-13.72,7.87-4.88,15.94-9.47,23.65-14.59a770.08,770.08,0,0,0,88.88-66.35c56.09-48.13,105.28-104.89,146.79-166a734.3,734.3,0,0,0,54.1-96.52,832.77,832.77,0,0,0,39.56-103.85c22.06-71.13,37-144.91,52.29-218.84s31.4-148.1,50.42-221.5q14.11-55.09,30.19-109.63c5.25-18.2,10.86-36.3,16.43-54.41q8.61-27.08,17.58-54,36.14-107.76,78.85-213c28.82-70,59.48-139.2,92.76-207.12a3.91,3.91,0,0,1,7.1,3.29Z" transform="translate(-465.37 -455)"/><path class="cls-5" d="M2496.72,2649.85c4.67,26.52,34.9,39.65,57.65,25.25,125.55-79.41,460.21-336,520.8-845.29,51.17-430,119.77-658.36,158.1-759.85,8.11-21.47-15.9-40.8-35.16-28.35C2985.55,1179,2327.49,1689.05,2496.72,2649.85Z" transform="translate(-465.37 -455)"/><path class="cls-3" d="M2532.59,2656.34a10.4,10.4,0,0,0,1.6,1.25,10.5,10.5,0,0,0,14.51-3.23c3.53-5.56,354.1-562.24,452.25-1157a10.51,10.51,0,1,0-20.74-3.42c-97.44,590.4-445.75,1143.6-449.25,1149.11A10.5,10.5,0,0,0,2532.59,2656.34Z" transform="translate(-465.37 -455)"/><path class="cls-6" d="M936.49,769.93l1450.8,38.44A150.36,150.36,0,0,1,2533.62,955L2585,3061.24a110.88,110.88,0,0,1-111.77,113.57L809.62,3161a105.24,105.24,0,0,1-104.34-108L761.37,936A170.67,170.67,0,0,1,936.49,769.93Z" transform="translate(-465.37 -455)"/><path class="cls-7" d="M1053.69,3131.05h-.13l-186-7.34c-61.86-2.44-110.86-54.77-109.22-116.66l7.45-280.91a3.37,3.37,0,0,1,6.74.17l-7.45,280.92c-1.54,58.22,44.55,107.45,102.75,109.75l186,7.34a3.37,3.37,0,0,1-.13,6.73Z" transform="translate(-465.37 -455)"/><path class="cls-8" d="M941.41,753c197.41,32.12,876.48,133.26,1440.91,105a45.84,45.84,0,0,1,48.2,44.52l56.31,2115.74a52.75,52.75,0,0,1-51,54.14c-237.28,7.75-1214.35,36.09-1561.39-9.58a41.78,41.78,0,0,1-36.28-42.33l45.74-2219.5A49.58,49.58,0,0,1,941.41,753Z" transform="translate(-465.37 -455)"/><path class="cls-5" d="M996.31,863.58c184.08,29.95,817.33,124.27,1343.65,97.86a42.75,42.75,0,0,1,44.95,41.52l52.51,1972.94a49.18,49.18,0,0,1-47.56,50.48c-221.26,7.22-1132.39,33.66-1456-8.93A39,39,0,0,1,900,2978L942.68,908.28A46.22,46.22,0,0,1,996.31,863.58Z" transform="translate(-465.37 -455)"/><path class="cls-6" d="M1759.47,504.75c-51.44-37.84-97-38.33-129.35-29.71a64,64,0,0,0-47.23,66.06l9.84,151.35,164.22,19S1860.35,579,1759.47,504.75Zm-75.62,119.89A41.06,41.06,0,1,1,1726,584.69,41.06,41.06,0,0,1,1683.85,624.64Z" transform="translate(-465.37 -455)"/><path class="cls-3" d="M1608,633a8.17,8.17,0,0,1-5.14-7.06l-1.56-24.11a8.15,8.15,0,1,1,16.27-1.05l1.57,24.11A8.16,8.16,0,0,1,1608,633Zm-3.07-47.24a8.13,8.13,0,0,1-5.13-7.06l-1.19-18.3a65.27,65.27,0,0,1,48.09-67.24,127.31,127.31,0,0,1,62.25-.91,8.16,8.16,0,1,1-3.69,15.89,111.22,111.22,0,0,0-54.36.78,48.93,48.93,0,0,0-36,50.43l1.19,18.3a8.16,8.16,0,0,1-11.14,8.11Z" transform="translate(-465.37 -455)"/><path class="cls-6" d="M1365.48,784.08l2-75.91a46.34,46.34,0,0,1,49.13-45l522.92,31.8a45.07,45.07,0,0,1,42.31,43.48l2.44,73.06Z" transform="translate(-465.37 -455)"/><path class="cls-3" d="M1540.71,691.08l22.51.59Z" transform="translate(-465.37 -455)"/><path class="cls-3" d="M1391.54,764.6a8.16,8.16,0,0,1-5.15-7.8l.82-30.71a47.24,47.24,0,0,1,48.46-46l82.75,2.19a8.16,8.16,0,0,1-.44,16.32l-82.75-2.2a31,31,0,0,0-31.72,30.09l-.81,30.71a8.17,8.17,0,0,1-8.38,7.94A8,8,0,0,1,1391.54,764.6Z" transform="translate(-465.37 -455)"/><path class="cls-6" d="M1202.22,752l915.24,24.23a67.66,67.66,0,0,1,65.17,57.87l.66,4.5A58.11,58.11,0,0,1,2124.24,905l-939-24.87a37.78,37.78,0,0,1-36.68-40.59l3.13-42A49.34,49.34,0,0,1,1202.22,752Z" transform="translate(-465.37 -455)"/><path class="cls-3" d="M2334.13,2773.81c-.15,15.61-10.81,28.31-23.82,28.36l-1279,4.88c-14.31,0-25.89-13.19-25.87-29.59V2775c0-16.41,11.66-29.72,26-29.75l1279.5-2c13,0,23.42,12.62,23.27,28.25Z" transform="translate(-465.37 -455)"/><path class="cls-3" d="M2334.13,2906.69c-.15,15.62-10.81,28.32-23.82,28.37l-1279,4.87c-14.31.06-25.89-13.19-25.87-29.59v-2.48c0-16.4,11.66-29.72,26-29.74l1279.5-2c13,0,23.42,12.63,23.27,28.25Z" transform="translate(-465.37 -455)"/><path class="cls-3" d="M2339,1951c-.15,15.62-10.81,28.32-23.82,28.37l-1279,4.88c-14.31,0-25.89-13.2-25.87-29.6v-2.48c0-16.4,11.65-29.72,26-29.74l1279.5-2c13,0,23.42,12.63,23.27,28.25Z" transform="translate(-465.37 -455)"/><path class="cls-3" d="M1986.73,1063.53c-.47,15.62-5.79,28.26-11.9,28.26-182.13,4.74-382.95-1.65-594.53-14.46-6.72,0-18.13.57-17.7-15.82l.06-2.48c.43-16.4,11.31-41.3,18-41.26,222.36,21.84,422.6,28,595.89,15.06,6.11,0,10.69,12.73,10.22,28.34Z" transform="translate(-465.37 -455)"/><path class="cls-3" d="M2311.75,2281.55c-.15,15.61-5.23,28.37-11.33,28.48l-600.72,11.48c-6.72.13-12.1-13.05-12-29.45v-2.48c.1-16.4,5.63-29.78,12.35-29.88l600.93-8.64c6.11-.09,10.93,12.5,10.78,28.12Z" transform="translate(-465.37 -455)"/><path class="cls-3" d="M2312.78,2413c-.15,15.62-5.23,28.37-11.33,28.48L1700.73,2453c-6.72.12-12.1-13.06-12-29.46V2421c.1-16.4,5.63-29.78,12.35-29.88l600.93-8.64c6.11-.09,10.93,12.51,10.78,28.13Z" transform="translate(-465.37 -455)"/><path class="cls-3" d="M2312.09,2535.62c-.15,15.62-5.22,28.37-11.33,28.49L1700,2575.59c-6.72.13-12.09-13.06-12-29.46l0-2.48c.09-16.4,5.62-29.78,12.34-29.87l600.93-8.65c6.11-.08,10.94,12.51,10.78,28.13Z" transform="translate(-465.37 -455)"/><path class="cls-3" d="M611.53,1669.46h471.32a57.29,57.29,0,0,1,57.29,57.29v390.07a57.28,57.28,0,0,1-57.28,57.28H611.53a57.29,57.29,0,0,1-57.29-57.29V1726.74A57.29,57.29,0,0,1,611.53,1669.46Z"/><path class="cls-9" d="M1130.9,1747.48a9.12,9.12,0,0,1-6.18-2.37,8,8,0,0,1-.19-11.8l290.16-280.46a8.86,8.86,0,0,1,11.16-.77l147.87,103.4L1841,1318a8.31,8.31,0,0,1,10.38-.39L1995.18,1422l212.21-222.42a8,8,0,0,1,11.59,11l-216.76,227.49a8.13,8.13,0,0,1-10.64.87l-144.33-104.61-267,237.62a8.68,8.68,0,0,1-10.69.56l-147.65-103.09L1137.26,1745A9.14,9.14,0,0,1,1130.9,1747.48Z" transform="translate(-465.37 -455)"/><path class="cls-7" d="M1417.75,1428.88c-19,.7-33.6,15.27-32.55,32.55s17.34,30.66,36.35,29.89S1455,1476,1454,1458.78,1436.73,1428.18,1417.75,1428.88Z" transform="translate(-465.37 -455)"/><path class="cls-7" d="M1126.78,1710c-19.63,1-34.69,16-33.61,33.59s17.87,30.9,37.49,29.83,34.55-16.09,33.48-33.58S1146.36,1709,1126.78,1710Z" transform="translate(-465.37 -455)"/><path class="cls-7" d="M1571.36,1536.45c-18.71.8-33.06,15.34-32,32.48s17.07,30.32,35.78,29.45S1608,1583,1607,1565.91,1590,1535.65,1571.36,1536.45Z" transform="translate(-465.37 -455)"/><path class="cls-7" d="M1993.24,1398.64c-17.85.65-31.54,14.74-30.53,31.49s16.32,29.74,34.17,29,31.42-14.8,30.42-31.48S2011.07,1398,1993.24,1398.64Z" transform="translate(-465.37 -455)"/><path class="cls-7" d="M2243.43,1205.73c-1-16.48-15.85-29.5-33.24-29.07s-30.78,14.17-29.79,30.71,15.94,29.56,33.36,29.07S2244.42,1222.21,2243.43,1205.73Z" transform="translate(-465.37 -455)"/><path class="cls-7" d="M1843.51,1294.94c-18.15.55-32.07,14.68-31,31.56s16.58,30.07,34.73,29.46,31.94-14.74,30.93-31.56S1861.63,1294.39,1843.51,1294.94Z" transform="translate(-465.37 -455)"/><path class="cls-10" d="M2334.58,1830.37H1057.64a46.32,46.32,0,0,1-46.3-47.63l15.76-555.8a10.11,10.11,0,1,1,20.21.58l-15.76,555.79a26.1,26.1,0,0,0,26.09,26.84H2334.58a10.11,10.11,0,0,1,0,20.22Z" transform="translate(-465.37 -455)"/><path class="cls-6" d="M1909.27,1899.83c-6.32,225.51-26.8,1003.36-17,1279,1,29.2,27.48,52.64,60.46,53.6,163.14,4.72,761.18,16.7,1028,6.79,55.57-2.06,99.77-41.92,100.92-91.16,5.55-236.69,17.78-902.43-11.29-1207.41-3.49-36.54-35.88-65.63-77.1-69.29-177.66-15.73-778.28-54.19-1008.81-40.95C1942.88,1832.81,1910.3,1863,1909.27,1899.83Z" transform="translate(-465.37 -455)"/><rect class="cls-8" x="1490.75" y="1477.9" width="1045.78" height="323.82" rx="66.36" ry="66.36"/><path class="cls-11" d="M2955.33,1998.16a43.73,43.73,0,0,0-30.74-13.32l-854.37-13.57a43.74,43.74,0,0,0-44.25,39.65l-17.75,189.55c-1.45,15.52,24.08,28.58,56.63,29l840,10.18c32.5.39,59.37-12,59.64-27.52l3.17-182.78A43.73,43.73,0,0,0,2955.33,1998.16Z" transform="translate(-465.37 -455)"/><path class="cls-8" d="M2184.39,2450.49a61,61,0,0,1-61,61H2049a61.05,61.05,0,0,1-61-61h0a61.05,61.05,0,0,1,61-61h74.32a61,61,0,0,1,61,61Z" transform="translate(-465.37 -455)"/><path class="cls-8" d="M2460.43,2450.49a61,61,0,0,1-61,61h-74.31a61,61,0,0,1-61.05-61h0a61,61,0,0,1,61.05-61h74.31a61,61,0,0,1,61,61Z" transform="translate(-465.37 -455)"/><path class="cls-8" d="M2725.86,2450.49a61,61,0,0,1-61.05,61h-74.32a61.05,61.05,0,0,1-61-61h0a61.05,61.05,0,0,1,61-61h74.32a61,61,0,0,1,61.05,61Z" transform="translate(-465.37 -455)"/><path class="cls-6" d="M2994.92,2459.45a62,62,0,0,1-62,62h-71.84a62,62,0,0,1-62-62h0a62,62,0,0,1,62-62h71.84a62,62,0,0,1,62,62Z" transform="translate(-465.37 -455)"/><path class="cls-8" d="M2184.39,2641.59a61,61,0,0,1-61,61H2049a61.05,61.05,0,0,1-61-61h0a61.05,61.05,0,0,1,61-61h74.32a61,61,0,0,1,61,61Z" transform="translate(-465.37 -455)"/><path class="cls-8" d="M2460.43,2641.59a61,61,0,0,1-61,61h-74.31a61,61,0,0,1-61.05-61h0a61,61,0,0,1,61.05-61h74.31a61,61,0,0,1,61,61Z" transform="translate(-465.37 -455)"/><path class="cls-8" d="M2725.86,2641.59a61,61,0,0,1-61.05,61h-74.32a61.05,61.05,0,0,1-61-61h0a61.05,61.05,0,0,1,61-61h74.32a61,61,0,0,1,61.05,61Z" transform="translate(-465.37 -455)"/><path class="cls-8" d="M3001.9,2641.59a61,61,0,0,1-61,61h-74.32a61,61,0,0,1-61.05-61h0a61,61,0,0,1,61.05-61h74.32a61,61,0,0,1,61,61Z" transform="translate(-465.37 -455)"/><path class="cls-12" d="M2184.39,2810.84a61,61,0,0,1-61,61H2049a61.05,61.05,0,0,1-61-61h0a61.05,61.05,0,0,1,61-61h74.32a61,61,0,0,1,61,61Z" transform="translate(-465.37 -455)"/><path class="cls-12" d="M2460.43,2810.84a61,61,0,0,1-61,61h-74.31a61,61,0,0,1-61.05-61h0a61,61,0,0,1,61.05-61h74.31a61,61,0,0,1,61,61Z" transform="translate(-465.37 -455)"/><path class="cls-12" d="M2725.86,2810.84a61,61,0,0,1-61.05,61h-74.32a61.05,61.05,0,0,1-61-61h0a61.05,61.05,0,0,1,61-61h74.32a61,61,0,0,1,61.05,61Z" transform="translate(-465.37 -455)"/><path class="cls-12" d="M2184.39,2996.64a61,61,0,0,1-61,61.05H2049a61.05,61.05,0,0,1-61-61.05h0a61.05,61.05,0,0,1,61-61h74.32a61,61,0,0,1,61,61Z" transform="translate(-465.37 -455)"/><path class="cls-12" d="M2460.43,2996.64a61,61,0,0,1-61,61.05h-74.31a61,61,0,0,1-61.05-61.05h0a61,61,0,0,1,61.05-61h74.31a61,61,0,0,1,61,61Z" transform="translate(-465.37 -455)"/><path class="cls-12" d="M2725.86,2996.64a61,61,0,0,1-61.05,61.05h-74.32a61.05,61.05,0,0,1-61-61.05h0a61.05,61.05,0,0,1,61-61h74.32a61,61,0,0,1,61.05,61Z" transform="translate(-465.37 -455)"/><rect class="cls-5" x="2350.73" y="2311.34" width="159.26" height="302.59" rx="77.27" ry="77.27"/><circle class="cls-6" cx="1525.52" cy="3035.01" r="219.99" transform="translate(-2164.64 1512.64) rotate(-45)"/><circle class="cls-6" cx="1525.52" cy="3035.01" r="212.67" transform="translate(-2164.64 1512.64) rotate(-45)"/><path class="cls-13" d="M1350.15,2950a3.46,3.46,0,0,1-1.52-.36,3.37,3.37,0,0,1-1.49-4.53,198.88,198.88,0,0,1,178.38-109.83,201.48,201.48,0,0,1,36,3.24,3.37,3.37,0,1,1-1.21,6.63,194.51,194.51,0,0,0-34.81-3.13,192.14,192.14,0,0,0-172.36,106.13A3.38,3.38,0,0,1,1350.15,2950Z" transform="translate(-465.37 -455)"/><circle class="cls-14" cx="1530.15" cy="3039.65" r="180" transform="translate(-2166.56 1517.27) rotate(-45)"/><path class="cls-6" d="M1512.49,3173.46v-19.58c-20.42-.82-40.61-5.64-55-11.92a11.31,11.31,0,0,1-6.26-13.38l5-18.24a11.42,11.42,0,0,1,15.5-7.47c14.23,6,31.79,10.68,50.73,10.68,19.67,0,34.33-6.67,34.33-20.33,0-12.33-11.33-19.66-38.66-27-39-10.67-67-27.67-67-62,0-31,22.67-54.66,62-61v-19.59a11.41,11.41,0,0,1,11.41-11.41h11.51a11.41,11.41,0,0,1,11.41,11.41v17.59c18.89.75,32.64,4,43.55,7.82a11.36,11.36,0,0,1,7.1,13.71l-4.58,16.87a11.38,11.38,0,0,1-15,7.68,118.76,118.76,0,0,0-42.71-7.75c-23.33,0-30,9.66-30,18.32,0,10.67,14,18,44.33,27.33,43.32,13,61.32,31,61.32,63.33,0,29.66-22,56.32-64.66,63v21.91a11.41,11.41,0,0,1-11.41,11.41h-11.5A11.41,11.41,0,0,1,1512.49,3173.46Z" transform="translate(-465.37 -455)"/><circle class="cls-6" cx="1291.13" cy="3035.01" r="219.99" transform="translate(-2233.29 1346.9) rotate(-45)"/><circle class="cls-6" cx="1291.13" cy="3035.01" r="212.67" transform="translate(-2233.29 1346.9) rotate(-45)"/><path class="cls-13" d="M1115.75,2950a3.42,3.42,0,0,1-1.51-.36,3.37,3.37,0,0,1-1.49-4.53,198.86,198.86,0,0,1,178.38-109.83,201.56,201.56,0,0,1,36,3.24,3.37,3.37,0,1,1-1.21,6.63,194.59,194.59,0,0,0-34.81-3.13,192.17,192.17,0,0,0-172.37,106.13A3.37,3.37,0,0,1,1115.75,2950Z" transform="translate(-465.37 -455)"/><circle class="cls-14" cx="1295.76" cy="3039.65" r="180" transform="translate(-2235.21 1351.53) rotate(-45)"/><path class="cls-6" d="M1278.09,3173.46v-19.58c-20.41-.82-40.6-5.64-54.94-11.92a11.32,11.32,0,0,1-6.27-13.38l5-18.24a11.42,11.42,0,0,1,15.5-7.47c14.23,6,31.79,10.68,50.73,10.68,19.67,0,34.33-6.67,34.33-20.33,0-12.33-11.33-19.66-38.66-27-39-10.67-67-27.67-67-62,0-31,22.67-54.66,62-61v-19.59a11.41,11.41,0,0,1,11.41-11.41h11.51a11.41,11.41,0,0,1,11.41,11.41v17.59c18.89.75,32.64,4,43.55,7.82a11.36,11.36,0,0,1,7.1,13.71l-4.58,16.87a11.38,11.38,0,0,1-15,7.68,118.82,118.82,0,0,0-42.72-7.75c-23.33,0-30,9.66-30,18.32,0,10.67,14,18,44.32,27.33,43.33,13,61.33,31,61.33,63.33,0,29.66-22,56.32-64.66,63v21.91a11.41,11.41,0,0,1-11.41,11.41h-11.5A11.41,11.41,0,0,1,1278.09,3173.46Z" transform="translate(-465.37 -455)"/><circle class="cls-6" cx="1056.73" cy="3035.01" r="219.99" transform="translate(-2301.94 1181.16) rotate(-45)"/><circle class="cls-6" cx="1056.73" cy="3035.01" r="212.67" transform="translate(-2301.94 1181.16) rotate(-45)"/><path class="cls-13" d="M881.36,2950a3.42,3.42,0,0,1-1.51-.36,3.37,3.37,0,0,1-1.49-4.53,198.86,198.86,0,0,1,178.37-109.83,201.59,201.59,0,0,1,36,3.24,3.37,3.37,0,1,1-1.21,6.63,194.62,194.62,0,0,0-34.82-3.13,192.14,192.14,0,0,0-172.35,106.13A3.39,3.39,0,0,1,881.36,2950Z" transform="translate(-465.37 -455)"/><circle class="cls-14" cx="1061.37" cy="3039.65" r="180" transform="translate(-2303.86 1185.79) rotate(-45)"/><path class="cls-6" d="M1043.7,3173.46v-19.58c-20.41-.82-40.6-5.64-55-11.92a11.32,11.32,0,0,1-6.26-13.38l5-18.24a11.42,11.42,0,0,1,15.5-7.47c14.23,6,31.79,10.68,50.73,10.68,19.67,0,34.33-6.67,34.33-20.33,0-12.33-11.33-19.66-38.66-27-39-10.67-67-27.67-67-62,0-31,22.67-54.66,62-61v-19.59a11.41,11.41,0,0,1,11.41-11.41h11.51a11.41,11.41,0,0,1,11.41,11.41v17.59c18.89.75,32.64,4,43.55,7.82a11.36,11.36,0,0,1,7.1,13.71l-4.58,16.87a11.38,11.38,0,0,1-15,7.68,118.82,118.82,0,0,0-42.72-7.75c-23.33,0-30,9.66-30,18.32,0,10.67,14,18,44.32,27.33,43.33,13,61.33,31,61.33,63.33,0,29.66-22,56.32-64.66,63v21.91a11.41,11.41,0,0,1-11.41,11.41h-11.51A11.41,11.41,0,0,1,1043.7,3173.46Z" transform="translate(-465.37 -455)"/><circle class="cls-6" cx="753.85" cy="2966.52" r="288.48" transform="translate(-2342.22 946.93) rotate(-45)"/><circle class="cls-6" cx="753.85" cy="2966.52" r="278.89" transform="translate(-2342.22 946.93) rotate(-45)"/><path class="cls-13" d="M523.88,2854a3.29,3.29,0,0,1-1.51-.36,3.37,3.37,0,0,1-1.49-4.53c44.66-88.48,133.93-143.44,233-143.44a263,263,0,0,1,47,4.23,3.37,3.37,0,1,1-1.21,6.63,256,256,0,0,0-45.84-4.12c-96.48,0-183.45,53.54-227,139.74A3.35,3.35,0,0,1,523.88,2854Z" transform="translate(-465.37 -455)"/><circle class="cls-15" cx="759.93" cy="2972.6" r="236.04" transform="translate(-2344.74 953) rotate(-45)"/><path class="cls-6" d="M736.77,3148.07v-25.68c-26.78-1.07-53.25-7.39-72.06-15.62a14.85,14.85,0,0,1-8.21-17.55L663,3065.3a15,15,0,0,1,20.33-9.8c18.65,7.83,41.69,14,66.53,14,25.78,0,45-8.74,45-26.66,0-16.17-14.86-25.78-50.69-35.39-51.14-14-87.85-36.28-87.85-81.29,0-40.65,29.72-71.68,81.29-80v-25.68a15,15,0,0,1,15-15h15.09a15,15,0,0,1,15,15v23c24.78,1,42.81,5.23,57.12,10.26a14.89,14.89,0,0,1,9.3,18l-6,22.12A14.91,14.91,0,0,1,823.38,2904a155.94,155.94,0,0,0-56-10.16c-30.59,0-39.33,12.67-39.33,24,0,14,18.35,23.6,58.12,35.84,56.82,17,80.42,40.64,80.42,83,0,38.9-28.85,73.86-84.79,82.61v28.73a15,15,0,0,1-15,15H751.73A15,15,0,0,1,736.77,3148.07Z" transform="translate(-465.37 -455)"/><path class="cls-16" d="M1635.07,2124.45c.44-.17,235.64-412.06,267.42-450.82a24.62,24.62,0,0,1,22-8.84l65.65,7.82,77.12,166.85-128.48-74.83c12.71,87.93-152.34,218.6-209,266.28a13,13,0,0,0-1,18.93l22.6,23.66c-37.11,37.61-79.92,61.76-128.24,72.93Z" transform="translate(-465.37 -455)"/><path class="cls-6" d="M1738.32,2060.73s14.43,4.66,19.31,17.51c2.34,6.15-.18,13.11-5.53,16.94-23.75,17-102.09,71.94-138.24,82.7a4.09,4.09,0,0,1-5.11-4.82c1.85-8.39,7.85-25.16,27.19-49.71l-1.74,3.5a5,5,0,0,0,7,6.63C1665.33,2119.83,1714.58,2090,1738.32,2060.73Z" transform="translate(-465.37 -455)"/><path class="cls-16" d="M1726.68,2225.54c.4-.25,35.69-85.27,36.08-85.52,32.35-197,111.29-365.7,134.57-410.09a24.66,24.66,0,0,1,19.75-13.11l65.87-5.62L2092.25,1859l-141-47.27c30.24,83.53-105,244.9-150.74,303.05a13,13,0,0,0,2.83,18.75l26.92,18.6c-28.72,44.33-65.76,76.65-110.82,97.36Z" transform="translate(-465.37 -455)"/><path class="cls-6" d="M1814.9,2142.25s15.07,1.64,22.45,13.23c3.53,5.55,2.48,12.88-2,17.71-19.82,21.47-85.42,91.12-118.64,109a4.09,4.09,0,0,1-6-3.68c.12-8.6,2.6-26.24,16.57-54.2l-1,3.79a5,5,0,0,0,8.15,5.08C1755.38,2214.89,1797.57,2175.67,1814.9,2142.25Z" transform="translate(-465.37 -455)"/><path class="cls-6" d="M2291.29,1680.08s59.59,88.63,64.48,129.06-16.47,54.41-78.84,59.57c-185.61,15.34-277.1-40.29-277.1-40.29-12.7-81-21.74-101.55-127.78-145.56,0,0,134.13,10.65,161.12.17S2291.29,1680.08,2291.29,1680.08Z" transform="translate(-465.37 -455)"/><path class="cls-6" d="M2053.67,1183.5s41.5-49.11,85.63,11.14c8,10.92,38.68,1.91,49.94,24.75,5.81,11.8,18.36,18.5,31.28,16.11,32.2-5.94,84.83-6.44,110.81,44,19.84,38.51,4.52,61-15.3,73.9-14.56,9.44-19.76,28.6-11,43.55,8.45,14.34,10,33.77-11.77,57.14-48.87,52.38-145.61-33.24-145.61-33.24l-76.82-181.51Z" transform="translate(-465.37 -455)"/><path class="cls-6" d="M2130.14,1668.34s-69.39-66.07-103.55-109.84a92.87,92.87,0,0,1-15.73-83.57c15.6-52.54,43.31-107,45.84-115.43,3.88-13,81.68-12.44,81.68-12.44s153.11,99.37,213.27,267.7l-67.56,21s-40-67.07-79.48-109.71c0,0,68.35,90.29,70.76,127.25Z" transform="translate(-465.37 -455)"/><path class="cls-16" d="M1997.92,1694.42l52.15-56.73,60.21,16.21s70.21,10.88,110.39,0l40.18-10.88,90.8-28.26,14.26,40.3a24.28,24.28,0,0,1-8.86,27.88c-7.86,5.58-17.07,11.72-22.94,14.28-12,5.23-275.45,1.66-275.45,1.66Z" transform="translate(-465.37 -455)"/><path class="cls-16" d="M2084.91,1253.51l52.29,97.24c-3.45,21.23-56.91,21.83-65.17,9.15a12.59,12.59,0,0,1-1.64-4.28l-31.29-65c-1.34-6.34,16-27.68,21.75-30.73l20.78-11.06C2089.64,1244.59,2056.24,1244.25,2084.91,1253.51Z" transform="translate(-465.37 -455)"/><path class="cls-16" d="M1979.07,1230.69s-5.9,32.85,19.92,74.62,51.54,39.89,64.6,25,28.72-39.71,21.6-81.37S1988,1188.79,1979.07,1230.69Z" transform="translate(-465.37 -455)"/><path class="cls-6" d="M2053.93,1253.46s-41.82-54.92-73.92-7l.54,16.54s-41.74-2-37.22-40.42,38.61-64.76,85.86-51.62,74.85,28.12,80.19,60.92-21.45,27.45-21.45,27.45-10.23-22.64-22.59-24.18-7.89,16.35-7.89,16.35Z" transform="translate(-465.37 -455)"/><path class="cls-16" d="M2063.52,1252s-21.66-28.1-1.94-33.94,19,27.54,17.69,40Z" transform="translate(-465.37 -455)"/><path class="cls-6" d="M2170.52,1716.87H2170l-239.83-.26a10.74,10.74,0,1,1,0-21.47l239.83.26a10.74,10.74,0,0,1,.53,21.46Z" transform="translate(-465.37 -455)"/><path class="cls-6" d="M1714.54,1499.12h199.73A38,38,0,0,1,1948.7,1521L2041,1716.74H1792.83a23.13,23.13,0,0,1-21.52-14.63l-71.6-181.18A16,16,0,0,1,1714.54,1499.12Z" transform="translate(-465.37 -455)"/><path class="cls-8" d="M1855.26,1599.51c4.32,13.45,1.13,26.51-7.15,29.17s-18.48-6.08-22.81-19.53-1.13-26.51,7.14-29.17S1850.93,1586.06,1855.26,1599.51Z" transform="translate(-465.37 -455)"/></g></g></svg>