<svg id="Слой_1" data-name="Слой 1" xmlns="http://www.w3.org/2000/svg" xmlns:xlink="http://www.w3.org/1999/xlink" viewBox="0 0 64.69 64.69"><defs><style>.cls-1{fill:url(#Nueva_muestra_de_degradado_4);}.cls-2,.cls-3{fill:#fff;}.cls-3{fill-rule:evenodd;}</style><linearGradient id="Nueva_muestra_de_degradado_4" x1="394.78" y1="621.22" x2="440.52" y2="666.96" gradientTransform="translate(948.55 89.63) rotate(76.72)" gradientUnits="userSpaceOnUse"><stop offset="0" stop-color="#00cdff"/><stop offset="1" stop-color="#0080ff"/></linearGradient></defs><title>tw</title><circle class="cls-1" cx="417.65" cy="644.09" r="32.34" transform="translate(-690.47 290.84) rotate(-76.72)"/><path class="cls-2" d="M437.31,631.61a16.27,16.27,0,0,1-4,1.15c.65-.11,1.6-1.28,2-1.75a7.47,7.47,0,0,0,1.34-2.44c0-.07.06-.16,0-.21a.22.22,0,0,0-.21,0,20.69,20.69,0,0,1-4.78,1.83.3.3,0,0,1-.33-.09,4.16,4.16,0,0,0-.42-.42,8.51,8.51,0,0,0-2.32-1.42,8,8,0,0,0-3.55-.57,8.31,8.31,0,0,0-3.37.95,8.69,8.69,0,0,0-2.72,2.22,8.43,8.43,0,0,0-1.62,3.25,8.8,8.8,0,0,0-.09,3.43c0,.19,0,.22-.16.19-6.57-1-12-3.32-16.43-8.36-.19-.21-.29-.21-.45,0-1.93,2.9-1,7.55,1.42,9.84a12.35,12.35,0,0,0,1,.89,8.33,8.33,0,0,1-3.17-.89c-.19-.12-.29,0-.3.17a4.33,4.33,0,0,0,0,.94,8.4,8.4,0,0,0,5.19,6.71,4.73,4.73,0,0,0,1.05.32,9.39,9.39,0,0,1-3.11.1c-.22,0-.31.07-.22.29,1.36,3.73,4.32,4.84,6.53,5.47.29,0,.59,0,.89.12,0,0,0,0-.06,0-.73,1.12-3.27,2-4.46,2.37a15.89,15.89,0,0,1-6.77.86c-.37,0-.44,0-.54,0s0,.15.1.25c.47.3.94.57,1.41.83a22.09,22.09,0,0,0,4.53,1.81c8.14,2.25,17.31.6,23.42-5.47,4.8-4.77,6.48-11.34,6.48-17.93,0-.25.3-.4.49-.53a15.91,15.91,0,0,0,3.18-3.32,1,1,0,0,0,.21-.63v0C437.47,631.51,437.47,631.54,437.31,631.61Z" transform="translate(-385.31 -611.74)"/><path class="cls-3" d="M409.44,660.56Z" transform="translate(-385.31 -611.74)"/><path class="cls-3" d="M409.44,660.56Z" transform="translate(-385.31 -611.74)"/><path class="cls-3" d="M410.78,660.59c0-.06.7,0,0,0C410.78,660.56,410.86,660.59,410.78,660.59Z" transform="translate(-385.31 -611.74)"/></svg>